{
  "accessors": [
    {
      "bufferView": 1,
      "componentType": 5126,
      "count": 34832,
      "max": [
        8.776900291442871,
        7.082069396972656,
        9.210518836975098
      ],
      "min": [
        -6.793000221252441,
        -4.985259532928467,
        -6.22283935546875
      ],
      "type": "VEC3"
    },
    {
      "bufferView": 1,
      "byteOffset": 417984,
      "componentType": 5126,
      "count": 34832,
      "max": [
        0.9999167323112488,
        0.9999723434448242,
        0.999991774559021
      ],
      "min": [
        -0.9999805688858032,
        -0.9999986886978149,
        -0.9999992847442627
      ],
      "type": "VEC3"
    },
    {
      "bufferView": 0,
      "componentType": 5125,
      "count": 208980,
      "type": "SCALAR"
    }
  ],
  "asset": {
    "extras": {
      "author": "thiblej (https://sketchfab.com/thiblej)",
      "license": "CC-BY-4.0 (http://creativecommons.org/licenses/by/4.0/)",
      "source": "https://sketchfab.com/3d-models/stanford-bunny-watertight-c2d42a32364b4428bfd231286dfb94bd",
      "title": "Stanford Bunny (watertight)"
    },
    "generator": "Sketchfab-16.72.0",
    "version": "2.0"
  },
  "bufferViews": [
    {
      "buffer": 0,
      "byteLength": 835920,
      "name": "floatBufferViews",
      "target": 34963
    },
    {
      "buffer": 0,
      "byteLength": 835968,
      "byteOffset": 835920,
      "byteStride": 12,
      "name": "floatBufferViews",
      "target": 34962
    }
  ],
  "buffers": [
    {
      "byteLength": 1671888,
      "uri": "stanford_bunny.bin"
    }
  ],
  "materials": [
    {
      "doubleSided": true,
      "name": "Scene_-_Root",
      "pbrMetallicRoughness": {
        "metallicFactor": 0.0,
        "roughnessFactor": 0.6
      }
    }
  ],
  "meshes": [
    {
      "name": "Object_0",
      "primitives": [
        {
          "attributes": {
            "NORMAL": 1,
            "POSITION": 0
          },
          "indices": 2,
          "material": 0,
          "mode": 4
        }
      ]
    }
  ],
  "nodes": [
    {
      "children": [
        1
      ],
      "matrix": [
        1.0,
        0.0,
        0.0,
        0.0,
        0.0,
        2.220446049250313e-16,
        -1.0,
        0.0,
        0.0,
        1.0,
        2.220446049250313e-16,
        0.0,
        0.0,
        0.0,
        0.0,
        1.0
      ],
      "name": "Sketchfab_model"
    },
    {
      "children": [
        2
      ],
      "name": "Geode"
    },
    {
      "mesh": 0,
      "name": "Object_2"
    }
  ],
  "scene": 0,
  "scenes": [
    {
      "name": "Sketchfab_Scene",
      "nodes": [
        0
      ]
    }
  ]
}
